<svg width="24" height="22" viewBox="0 0 24 22" fill="none" xmlns="http://www.w3.org/2000/svg">
<path d="M9.32837 13.55C9.74837 13.6153 10.1077 13.7646 10.4064 13.998C10.705 14.2313 10.9384 14.5253 11.1064 14.88C11.2744 15.2346 11.3584 15.636 11.3584 16.084C11.3584 16.644 11.223 17.1386 10.9524 17.568C10.6817 17.9973 10.3037 18.3286 9.81837 18.562C9.33303 18.7953 8.76837 18.912 8.12437 18.912C7.41503 18.912 6.79437 18.7673 6.26237 18.478C5.73037 18.198 5.32903 17.806 5.05837 17.302L5.71637 16.7C5.9217 17.1013 6.22503 17.4233 6.62637 17.666C7.0277 17.918 7.52703 18.044 8.12437 18.044C8.81503 18.044 9.36103 17.8713 9.76237 17.526C10.173 17.19 10.3784 16.7046 10.3784 16.07C10.3784 15.4353 10.1637 14.9313 9.73437 14.558C9.31437 14.1753 8.71237 13.984 7.92837 13.984H7.57837V13.172H7.95637C8.67503 13.172 9.2257 13.004 9.60837 12.668C9.99103 12.332 10.1824 11.9026 10.1824 11.38C10.1824 10.9973 10.0937 10.68 9.91637 10.428C9.73903 10.176 9.49637 9.98462 9.18837 9.85396C8.8897 9.72329 8.54437 9.65796 8.15237 9.65796C7.62037 9.65796 7.14903 9.77929 6.73837 10.022C6.33703 10.2553 6.0337 10.582 5.82837 11.002L5.21237 10.414C5.37103 10.0873 5.5997 9.80262 5.89837 9.55996C6.19703 9.31729 6.54703 9.13062 6.94837 8.99996C7.3497 8.85996 7.77903 8.78996 8.23637 8.78996C8.81503 8.78996 9.3237 8.89729 9.76237 9.11196C10.201 9.31729 10.5464 9.60662 10.7984 9.97996C11.0504 10.3533 11.1764 10.792 11.1764 11.296C11.1764 11.6693 11.1017 12.0146 10.9524 12.332C10.803 12.6493 10.5884 12.9153 10.3084 13.13C10.0377 13.3446 9.71103 13.4846 9.32837 13.55ZM17.6889 15.986V16.854H12.9429V15.986H14.9309V9.99396C14.8562 10.106 14.7302 10.2273 14.5529 10.358C14.3755 10.4886 14.1702 10.61 13.9369 10.722C13.7129 10.834 13.4889 10.9273 13.2649 11.002C13.0409 11.0766 12.8355 11.114 12.6489 11.114V10.19C12.8635 10.19 13.0969 10.1293 13.3489 10.008C13.6009 9.88662 13.8435 9.74662 14.0769 9.58796C14.3102 9.42929 14.5062 9.27996 14.6649 9.13996C14.8235 8.99996 14.9122 8.90662 14.9309 8.85996H15.9109V15.986H17.6889Z" fill="#8676FE"/>
<path d="M0.803223 7.8337V19.34C0.803223 20.4445 1.69865 21.34 2.80322 21.34H20.5427C21.6472 21.34 22.5427 20.4445 22.5427 19.34V6.39486C22.5427 5.29029 21.6472 4.39486 20.5427 4.39486H14.6008M6.65902 4.39486H2.52032H14.6008M6.65902 4.39486V0.591736M6.65902 4.39486H14.6008M14.6008 4.39486V0.591736M2.52032 6.18457H14.6008" stroke="#8676FE"/>
</svg>
