<svg width="15" height="16" viewBox="0 0 15 16" fill="none" xmlns="http://www.w3.org/2000/svg">
<path d="M6.47724 1.99197C5.56701 1.99197 4.67721 2.26189 3.92037 2.76759C3.16354 3.27329 2.57366 3.99207 2.22533 4.83302C1.87699 5.67397 1.78585 6.59933 1.96343 7.49207C2.14101 8.38482 2.57933 9.20486 3.22297 9.8485C3.8666 10.4921 4.68664 10.9305 5.57939 11.108C6.47214 11.2856 7.3975 11.1945 8.23844 10.8461C9.07939 10.4978 9.79817 9.90793 10.3039 9.15109C10.8096 8.39426 11.0795 7.50446 11.0795 6.59422C11.0794 5.37365 10.5945 4.2031 9.73143 3.34003C8.86836 2.47695 7.69781 1.99205 6.47724 1.99197V1.99197Z" stroke="#8676FE" stroke-width="0.5" stroke-miterlimit="10"/>
<path d="M9.91083 10.0278L13.125 13.242" stroke="#8676FE" stroke-width="0.5" stroke-miterlimit="10" stroke-linecap="round"/>
</svg>
