<?xml version="1.0" standalone="no"?>
<!DOCTYPE svg PUBLIC "-//W3C//DTD SVG 20010904//EN"
 "http://www.w3.org/TR/2001/REC-SVG-20010904/DTD/svg10.dtd">
<svg version="1.0" xmlns="http://www.w3.org/2000/svg"
 width="401.000000pt" height="401.000000pt" viewBox="0 0 401.000000 401.000000"
 preserveAspectRatio="xMidYMid meet">
<metadata>
Created by potrace 1.14, written by Peter Selinger 2001-2017
</metadata>
<g transform="translate(0.000000,401.000000) scale(0.100000,-0.100000)"
fill="#000000" stroke="none">
<path d="M820 3591 c-71 -23 -130 -72 -149 -124 -6 -16 -11 -61 -11 -101 0
-59 5 -82 25 -120 14 -26 23 -52 19 -57 -3 -5 -20 -16 -37 -25 -31 -16 -108
-75 -271 -208 -44 -36 -109 -82 -145 -103 l-65 -38 55 -13 c36 -9 97 -11 185
-8 l132 4 -36 -136 -36 -137 -95 -101 c-116 -122 -152 -187 -159 -289 -5 -77
-4 -77 51 5 20 31 50 69 67 85 l30 29 0 -52 c0 -58 27 -135 70 -197 31 -45
108 -125 120 -125 4 0 -1 30 -11 67 -20 72 -24 113 -11 113 5 0 24 -24 42 -52
19 -29 59 -78 89 -108 31 -30 54 -58 53 -63 -1 -4 8 -5 20 -2 25 6 156 -53
271 -123 46 -28 67 -36 67 -26 0 25 29 15 69 -25 33 -33 77 -101 65 -101 -5 0
-216 84 -369 148 -66 27 -144 57 -173 66 -28 10 -50 22 -46 27 6 11 -3 11 -31
0 -15 -6 -1 -14 63 -35 46 -16 82 -30 80 -31 -4 -5 -149 34 -169 45 -11 6 -34
-1 -75 -24 -48 -27 -60 -38 -62 -62 -2 -16 -9 -36 -15 -44 -6 -8 3 -2 20 14
29 26 36 28 77 22 25 -4 46 -12 46 -17 0 -6 14 -22 31 -36 16 -14 43 -49 59
-77 17 -28 30 -47 30 -43 0 17 -42 88 -71 122 -38 43 -28 45 78 15 76 -21 125
-43 336 -153 71 -37 138 -67 150 -67 12 0 -12 15 -54 33 -42 19 -116 56 -165
83 -181 101 -312 144 -441 147 -40 1 -73 5 -73 9 0 4 11 15 25 24 52 34 221
-12 462 -127 163 -77 274 -122 341 -138 68 -17 75 -31 15 -32 l-48 -2 60 -7
c33 -4 80 -8 105 -7 41 0 42 1 8 4 -35 4 -37 6 -36 39 1 31 8 39 71 81 38 26
84 66 100 90 17 24 34 43 37 43 15 0 19 -14 7 -29 -11 -14 -10 -14 6 -2 14 11
21 11 29 3 9 -9 -3 -27 -50 -72 -34 -34 -54 -56 -44 -51 10 5 39 32 64 59 26
28 49 47 52 44 16 -16 1 -49 -46 -100 l-52 -57 60 58 60 57 31 -32 c17 -18 41
-60 52 -93 13 -39 20 -51 21 -34 0 37 -45 122 -80 147 -16 13 -30 29 -30 37 0
12 -27 38 -99 93 l-23 18 31 45 c17 24 37 68 43 97 7 28 16 52 19 52 4 0 11
-26 16 -57 8 -55 9 -57 22 -34 25 45 26 134 1 211 l-23 70 -40 -45 c-44 -50
-103 -84 -187 -108 -105 -29 -144 -29 -225 -3 -15 5 -15 4 3 -5 12 -7 22 -19
22 -28 0 -13 2 -13 9 -2 7 11 17 10 55 -9 45 -21 67 -49 79 -100 4 -18 17 -28
41 -36 19 -6 33 -7 30 -3 -3 5 3 23 12 41 19 37 28 26 22 -28 -4 -33 -1 -36
44 -61 26 -14 48 -31 48 -36 0 -36 -138 -157 -179 -157 -29 0 -35 17 -32 93 2
55 -1 72 -18 93 -12 15 -21 38 -21 53 -1 24 -1 25 -12 6 -17 -31 -18 -31 -38
-5 -16 21 -18 22 -14 5 3 -14 -2 -23 -21 -32 -22 -10 -28 -8 -50 19 -29 35
-31 48 -9 91 15 32 15 32 -4 9 -10 -13 -33 -52 -51 -88 -18 -35 -36 -66 -39
-68 -4 -2 -32 11 -62 31 -75 48 -241 128 -261 125 -10 -2 -19 10 -27 36 -17
56 -15 59 11 22 12 -19 27 -35 33 -37 5 -2 23 23 39 56 l28 59 43 -21 c37 -18
48 -31 77 -91 19 -39 38 -82 44 -96 9 -23 10 -22 26 25 10 27 17 68 17 92 0
46 6 51 36 28 32 -24 45 -19 29 12 -19 36 -10 46 26 27 17 -8 33 -14 35 -11 2
2 -13 12 -33 21 -35 16 -40 23 -62 97 -13 44 -60 145 -104 227 l-80 147 6 100
c6 86 20 171 33 184 8 9 32 -22 27 -35 -3 -8 1 -14 8 -14 36 -1 41 -15 25 -77
-20 -75 -21 -102 -4 -85 7 7 22 12 35 12 20 0 23 -5 23 -34 0 -58 57 -61 80
-5 10 23 15 27 26 18 8 -6 14 -19 15 -28 1 -27 26 52 34 107 7 55 14 60 59 42
17 -6 24 -14 20 -25 -10 -26 10 -17 47 21 18 20 61 48 94 64 66 30 122 83 153
145 l20 40 12 -29 c6 -16 26 -82 45 -145 19 -64 37 -125 41 -135 6 -17 4 -18
-17 -12 -13 4 -46 9 -74 12 l-50 6 -19 -54 c-21 -59 -33 -142 -18 -120 7 11
11 8 16 -11 9 -37 37 -43 62 -13 24 27 34 24 34 -8 0 -36 17 1 36 79 9 38 18
71 19 73 9 11 40 -18 60 -57 l25 -46 -6 45 c-4 25 -10 62 -14 83 -4 20 -5 37
-1 37 4 0 22 -13 41 -28 l34 -29 -42 -94 c-61 -141 -113 -272 -108 -276 2 -2
12 15 22 39 l18 43 7 -105 c8 -142 34 -228 92 -300 l19 -25 -7 45 c-8 51 -8
51 57 -35 48 -63 121 -135 138 -135 5 0 -2 29 -15 65 -20 52 -25 84 -25 153
l1 87 22 -25 c12 -14 38 -45 57 -68 19 -23 37 -42 41 -42 4 0 -8 30 -27 68
-88 173 -110 326 -78 542 20 141 24 350 6 426 -30 135 -88 227 -180 285 -23
15 -58 47 -76 71 -70 92 -197 172 -330 208 -65 18 -100 21 -198 19 -103 -4
-119 -2 -124 13 -9 31 -46 68 -85 89 -44 22 -149 33 -189 20z m30 -486 c0 -25
-31 -65 -50 -65 -14 0 -13 15 4 55 18 41 46 47 46 10z m40 -30 c0 -8 -4 -15
-10 -15 -5 0 -7 7 -4 15 4 8 8 15 10 15 2 0 4 -7 4 -15z m465 -203 c-24 -61
-50 -131 -56 -156 -6 -25 -13 -46 -15 -46 -1 0 -31 6 -66 14 -35 8 -94 18
-132 22 l-68 7 6 59 c4 33 10 66 13 74 9 24 23 16 23 -13 0 -16 10 -48 22 -73
l22 -45 3 35 c4 41 34 163 39 157 2 -2 8 -27 14 -56 10 -56 37 -121 50 -121 4
0 8 34 9 75 2 87 9 111 45 144 l26 24 -19 -54 c-11 -30 -22 -72 -26 -94 l-7
-40 32 50 c37 58 120 158 126 152 3 -2 -16 -54 -41 -115z m624 44 c6 -25 11
-53 11 -63 -1 -16 -3 -15 -20 6 -20 24 -29 101 -11 101 5 0 14 -20 20 -44z
m-51 -24 c-3 -14 -6 -14 -16 6 -7 12 -10 27 -6 33 9 15 27 -16 22 -39z m-1238
-287 c0 -13 -8 -29 -17 -34 -12 -7 -14 -10 -4 -11 11 0 12 -14 7 -68 -4 -38
-10 -82 -15 -98 l-8 -29 -17 34 c-25 47 -20 179 8 210 26 28 46 27 46 -4z
m240 -471 c0 -8 -4 -12 -10 -9 -5 3 -10 13 -10 21 0 8 5 12 10 9 6 -3 10 -13
10 -21z m984 -100 c8 -29 3 -39 -13 -29 -13 8 -15 55 -2 55 5 0 12 -12 15 -26z
m-835 -65 c9 -27 8 -30 -5 -25 -9 3 -18 6 -20 6 -2 0 -4 14 -4 31 0 36 14 31
29 -12z m454 -233 c-5 -10 -13 -12 -22 -7 -11 7 -10 18 5 62 l19 54 3 -47 c2
-26 -1 -54 -5 -62z m-918 18 c71 -13 196 -60 370 -139 169 -77 238 -105 259
-105 6 0 -45 24 -114 53 -185 79 -320 140 -316 144 2 2 73 -25 157 -61 85 -35
183 -74 219 -86 77 -26 97 -39 78 -51 -10 -7 -9 -9 3 -9 9 0 24 -9 34 -20 10
-11 15 -20 12 -20 -27 0 -195 64 -297 112 -69 33 -158 76 -199 95 -81 37 -229
83 -268 83 -14 0 -22 4 -18 10 4 6 14 9 23 6 10 -3 35 -8 57 -12z m558 -13
c19 -33 20 -40 8 -60 -7 -11 -14 -10 -40 8 -30 22 -30 23 -16 52 19 36 26 36
48 0z m-383 -21 c8 -5 11 -10 5 -10 -5 0 -17 5 -25 10 -8 5 -10 10 -5 10 6 0
17 -5 25 -10z m534 -11 c22 -18 26 -28 26 -75 0 -45 -3 -54 -17 -54 -10 0 -34
-3 -53 -6 -32 -4 -37 -1 -62 35 -34 48 -34 52 -2 90 31 37 69 41 108 10z m31
-180 c9 -16 15 -46 13 -66 l-3 -36 -42 57 c-24 31 -43 61 -43 66 0 6 13 10 30
10 23 0 33 -7 45 -31z"/>
<path d="M990 2464 c0 -7 9 -22 21 -35 16 -19 18 -20 10 -4 -17 34 -31 51 -31
39z"/>
<path d="M1139 2437 c-13 -13 -31 -27 -39 -30 -13 -4 -12 -6 1 -6 8 -1 28 13
44 29 34 36 30 40 -6 7z"/>
<path d="M1575 2300 c-3 -6 1 -7 9 -4 18 7 21 14 7 14 -6 0 -13 -4 -16 -10z"/>
<path d="M1425 2250 c-3 -5 -1 -10 4 -10 6 0 11 5 11 10 0 6 -2 10 -4 10 -3 0
-8 -4 -11 -10z"/>
<path d="M1170 1891 c26 -14 37 -28 41 -52 l6 -34 2 33 c1 26 -5 36 -31 52
-18 11 -37 20 -43 20 -5 -1 6 -9 25 -19z"/>
<path d="M2833 1653 c-116 -120 -212 -224 -213 -230 0 -7 25 -47 55 -89 30
-42 55 -80 55 -84 0 -3 -16 -25 -36 -48 -20 -23 -33 -48 -31 -55 4 -8 6 -6 6
4 1 9 11 24 22 35 12 10 41 47 66 82 25 34 49 60 54 56 5 -3 9 0 9 5 0 21 -20
10 -51 -29 -32 -39 -32 -40 -47 -19 -14 20 -5 31 206 242 203 203 223 220 256
221 20 1 36 2 36 4 0 13 -79 96 -101 108 -57 29 -63 25 -286 -203z m287 187
c12 -8 8 -10 -15 -11 -16 -1 -32 -2 -35 -2 -3 -1 -75 -73 -160 -161 -85 -88
-147 -154 -138 -147 9 7 79 75 154 152 l138 139 27 -33 c16 -17 28 -35 29 -38
0 -3 -92 -100 -205 -215 l-205 -209 -25 30 c-14 17 -25 36 -25 43 0 6 -7 12
-16 12 -9 0 -14 4 -12 9 2 6 93 103 203 216 181 186 217 217 265 224 3 0 12
-4 20 -9z m53 -49 l25 -29 -21 -6 c-37 -10 -44 -7 -71 29 l-27 35 34 0 c25 0
41 -8 60 -29z"/>
<path d="M2730 1485 c-7 -9 -8 -15 -2 -15 5 0 12 7 16 15 3 8 4 15 2 15 -2 0
-9 -7 -16 -15z"/>
<path d="M1326 1824 c-4 -14 -5 -28 -3 -31 3 -2 8 8 11 23 4 14 5 28 3 31 -3
2 -8 -8 -11 -23z"/>
<path d="M1220 1790 c0 -5 5 -10 11 -10 5 0 7 5 4 10 -3 6 -8 10 -11 10 -2 0
-4 -4 -4 -10z"/>
<path d="M1391 1738 c-1 -4 3 -18 9 -32 7 -20 6 -27 -8 -35 -15 -9 -15 -10 -1
-11 24 0 29 21 14 55 -7 17 -14 27 -14 23z"/>
<path d="M1130 1646 c0 -2 8 -10 18 -17 15 -13 16 -12 3 4 -13 16 -21 21 -21
13z"/>
<path d="M3300 1646 c0 -2 8 -10 18 -17 15 -13 16 -12 3 4 -13 16 -21 21 -21
13z"/>
<path d="M405 1609 c-4 -6 -5 -12 -2 -15 2 -3 7 2 10 11 7 17 1 20 -8 4z"/>
<path d="M1555 1592 c-17 -15 -46 -40 -65 -55 -19 -15 -26 -23 -14 -18 21 10
123 100 114 100 -3 0 -19 -12 -35 -27z"/>
<path d="M3107 1572 c-28 -29 -38 -53 -14 -33 17 13 28 5 20 -15 -3 -8 -2 -14
3 -13 21 4 26 -2 14 -16 -24 -29 6 -15 38 18 l31 32 -24 12 c-15 6 -27 7 -31
2 -3 -5 -10 -7 -15 -3 -6 4 -3 14 7 25 27 30 1 22 -29 -9z m49 -49 c-10 -10
-19 5 -10 18 6 11 8 11 12 0 2 -7 1 -15 -2 -18z"/>
<path d="M3350 1586 c0 -2 8 -10 18 -17 15 -13 16 -12 3 4 -13 16 -21 21 -21
13z"/>
<path d="M361 1483 c-7 -26 -15 -79 -18 -118 -4 -44 -13 -80 -24 -97 -27 -38
-23 -48 5 -14 l23 30 7 -51 c10 -80 103 -353 119 -353 5 0 6 8 2 18 -36 87
-85 230 -100 287 -21 82 -24 229 -6 294 7 23 10 45 8 47 -2 3 -10 -17 -16 -43z"/>
<path d="M3045 1510 c-10 -11 -13 -20 -8 -20 13 0 38 29 31 35 -3 3 -13 -4
-23 -15z"/>
<path d="M3175 1500 l-29 -30 24 -23 25 -23 26 27 25 26 -21 27 -21 26 -29
-30z m41 -11 c10 -17 -23 -46 -38 -31 -8 8 -8 15 2 27 15 18 26 19 36 4z"/>
<path d="M1420 1489 c-22 -18 -22 -19 -3 -10 12 6 25 16 28 21 9 15 3 12 -25
-11z"/>
<path d="M1701 1496 c-1 -27 -23 -96 -31 -96 -3 0 -11 21 -18 46 -16 61 -23
53 -9 -8 16 -66 41 -65 57 2 6 27 10 55 7 62 -3 8 -6 5 -6 -6z"/>
<path d="M3065 1490 c-10 -11 -16 -22 -13 -25 3 -3 13 4 23 15 10 11 16 22 13
25 -3 3 -13 -4 -23 -15z"/>
<path d="M691 1498 c-1 -3 17 -57 40 -120 52 -146 52 -202 -6 -325 -21 -46
-41 -83 -45 -83 -8 0 -53 91 -69 141 -7 20 -18 83 -26 140 l-14 104 4 -86 c6
-100 30 -186 85 -301 45 -93 48 -121 20 -204 -15 -42 -18 -65 -11 -84 8 -24
89 -140 98 -140 7 0 -16 37 -52 84 -39 52 -42 70 -19 146 11 38 14 70 9 105
-12 86 -9 103 26 161 19 31 33 61 31 66 -1 5 1 7 5 5 5 -3 9 32 11 76 3 68 -1
96 -24 161 -27 82 -62 166 -63 154z"/>
<path d="M3435 1488 c6 -15 1 -18 -28 -18 -32 0 -50 -15 -223 -191 -104 -105
-191 -194 -194 -197 -2 -4 82 78 187 182 l190 188 72 -88 71 -88 -33 -36 c-18
-19 -65 -69 -104 -110 -38 -41 -119 -128 -178 -193 -88 -95 -111 -115 -122
-105 -8 6 -41 45 -74 87 -33 42 -73 90 -89 108 -15 17 -49 60 -74 96 -41 57
-45 68 -35 85 12 19 14 18 44 -14 18 -19 39 -34 47 -34 25 0 68 40 68 63 -1
21 -2 20 -21 -5 -12 -16 -30 -28 -43 -28 -28 0 -56 29 -56 58 0 21 24 52 41
52 5 0 9 5 9 10 0 17 -26 11 -45 -10 -10 -11 -22 -17 -26 -14 -5 3 -9 -5 -9
-18 0 -13 -9 -41 -21 -62 -11 -21 -18 -50 -16 -65 l4 -26 2 28 c0 15 6 27 11
27 6 0 10 -3 10 -7 0 -5 36 -55 79 -113 76 -101 79 -106 63 -125 -16 -19 -16
-19 3 -4 19 16 22 14 70 -47 43 -55 54 -64 76 -60 14 3 38 -2 53 -9 34 -18 48
-11 101 47 21 23 106 114 189 201 82 86 147 159 145 162 -3 2 -92 -88 -198
-200 -106 -113 -197 -205 -203 -205 -15 0 1 18 211 232 101 103 187 185 192
182 9 -5 29 28 29 50 0 9 -37 60 -82 113 -103 125 -100 121 -93 101z m92 -118
c40 -46 73 -92 73 -101 0 -27 -13 -30 -24 -7 -6 13 -20 24 -31 26 -27 5 -34
12 -105 98 l-63 75 39 -3 c34 -3 46 -12 111 -88z m-37 -207 c-280 -292 -337
-346 -354 -336 -15 8 12 41 183 226 111 118 207 217 213 220 7 3 20 -2 27 -9
13 -12 3 -26 -69 -101z"/>
<path d="M3224 928 c-33 -35 -66 -72 -74 -83 -13 -19 53 46 114 113 52 57 23
34 -40 -30z"/>
<path d="M1460 1480 c-9 -6 -10 -10 -3 -10 6 0 15 5 18 10 8 12 4 12 -15 0z"/>
<path d="M3075 1469 c-4 -6 -5 -13 -2 -16 7 -7 27 6 27 18 0 12 -17 12 -25 -2z"/>
<path d="M1420 1460 c-9 -6 -10 -10 -3 -10 6 0 15 5 18 10 8 12 4 12 -15 0z"/>
<path d="M1529 1453 c-13 -16 -12 -17 4 -4 16 13 21 21 13 21 -2 0 -10 -8 -17
-17z"/>
<path d="M3101 1456 c-8 -9 -11 -19 -7 -23 9 -9 29 13 24 27 -2 8 -8 7 -17 -4z"/>
<path d="M798 1293 c-3 -93 -7 -296 -10 -453 -3 -157 -9 -293 -13 -302 -4 -11
-23 -19 -53 -23 -54 -7 -185 -49 -222 -70 -36 -21 -19 -18 37 6 66 28 198 59
256 59 40 0 47 3 47 19 0 30 -19 35 -29 9 -9 -22 -10 -22 -10 7 l-1 30 88 1
c48 1 72 0 55 -3 -27 -3 -33 -9 -33 -28 0 -28 8 -31 120 -40 41 -3 98 -11 125
-18 l50 -13 3 -57 c6 -120 -34 -240 -92 -277 -55 -33 -104 -26 -238 33 l-120
52 44 3 c80 6 66 22 -20 22 -109 0 -281 26 -367 56 -138 48 -157 79 -163 269
-4 125 18 316 47 410 8 27 9 28 10 6 1 -13 4 -22 7 -18 3 3 3 34 -2 69 l-8 63
-7 -40 c-4 -22 -16 -83 -27 -135 -25 -113 -46 -355 -37 -413 3 -23 13 -65 21
-94 22 -81 76 -114 252 -153 46 -10 85 -20 88 -22 2 -2 -17 -44 -41 -94 -47
-94 -64 -144 -47 -144 5 0 12 17 16 38 3 20 25 73 49 117 46 88 49 89 129 64
36 -12 38 -13 32 -49 -6 -35 -4 -38 43 -68 74 -47 129 -64 213 -65 89 -1 136
19 146 61 4 15 15 39 25 54 11 14 19 31 19 37 0 6 16 17 35 25 20 9 43 29 53
46 16 28 20 30 87 32 l70 2 -68 3 -68 4 5 67 4 67 44 12 c37 10 39 11 13 11
-16 1 -39 -3 -50 -7 -12 -5 -28 -3 -41 5 -11 8 -49 20 -85 28 -69 15 -58 19
61 19 l75 0 -65 6 -65 6 -3 37 c-3 31 0 37 20 41 13 2 -70 5 -183 6 l-206 1
-7 46 c-8 60 -8 248 1 552 l6 241 41 4 41 4 -46 1 -47 2 -4 -167z m115 -700
c-18 -2 -48 -2 -65 0 -18 2 -4 4 32 4 36 0 50 -2 33 -4z m257 -27 c0 -40 -15
-47 -100 -44 -43 1 -47 2 -17 5 33 4 37 7 37 33 0 29 3 31 68 39 7 0 12 -12
12 -33z m-132 17 c-10 -2 -28 -2 -40 0 -13 2 -5 4 17 4 22 1 32 -1 23 -4z m42
-28 c0 -10 -10 -15 -27 -15 -16 0 -52 -3 -80 -6 -44 -6 -53 -4 -53 9 0 17 26
22 113 25 36 2 47 -2 47 -13z m186 -99 c40 -30 8 -201 -42 -220 -25 -10 -27
-2 -15 54 6 28 11 77 11 109 0 74 8 84 46 57z"/>
<path d="M958 1443 c12 -2 32 -2 45 0 12 2 2 4 -23 4 -25 0 -35 -2 -22 -4z"/>
<path d="M2945 1410 c-22 -22 -35 -40 -29 -40 13 0 79 68 73 75 -3 2 -23 -13
-44 -35z"/>
<path d="M2963 1393 c-73 -77 -67 -91 7 -18 56 56 70 75 53 75 -5 0 -32 -26
-60 -57z"/>
<path d="M3117 1432 c-14 -16 -14 -19 3 -42 19 -25 19 -25 34 -5 20 26 20 29
-2 49 -18 15 -20 15 -35 -2z m33 -23 c0 -5 -7 -9 -15 -9 -15 0 -20 12 -9 23 8
8 24 -1 24 -14z"/>
<path d="M1140 1416 c0 -9 30 -14 35 -6 4 6 -3 10 -14 10 -12 0 -21 -2 -21 -4z"/>
<path d="M1474 1408 c-3 -4 13 -8 35 -8 23 0 41 2 41 4 0 8 -71 12 -76 4z"/>
<path d="M2975 1370 c-16 -16 -25 -33 -22 -37 8 -7 67 45 67 59 0 16 -17 8
-45 -22z"/>
<path d="M876 1299 c-3 -52 -7 -215 -10 -362 l-4 -268 21 -8 c12 -4 132 -15
267 -25 135 -9 362 -25 505 -36 143 -11 283 -20 312 -20 l52 0 5 43 c9 75 24
662 17 669 -4 5 -120 17 -259 28 -488 39 -748 60 -823 66 l-77 7 -6 -94z m659
-9 c436 -33 455 -35 455 -55 0 -11 -12 -13 -47 -10 -27 3 -172 14 -323 25
-151 11 -327 24 -390 30 -63 5 -155 12 -205 16 -98 7 -109 10 -99 26 8 13 62
10 609 -32z"/>
<path d="M1788 1383 c12 -2 30 -2 40 0 9 3 -1 5 -23 4 -22 0 -30 -2 -17 -4z"/>
<path d="M3001 1356 c-19 -20 -31 -39 -27 -43 9 -9 69 52 65 66 -3 7 -19 -4
-38 -23z"/>
<path d="M1908 1373 c12 -2 30 -2 40 0 9 3 -1 5 -23 4 -22 0 -30 -2 -17 -4z"/>
<path d="M1748 1363 c7 -3 16 -2 19 1 4 3 -2 6 -13 5 -11 0 -14 -3 -6 -6z"/>
<path d="M2013 1363 c15 -2 37 -2 50 0 12 2 0 4 -28 4 -27 0 -38 -2 -22 -4z"/>
<path d="M3017 1332 c-42 -43 -44 -53 -19 -73 15 -13 21 -10 58 28 38 39 40
44 27 63 -19 27 -23 26 -66 -18z m26 -24 c-18 -18 -36 -29 -39 -25 -10 10 36
57 55 57 11 0 6 -10 -16 -32z"/>
<path d="M3393 1352 c-6 -4 -16 -20 -22 -35 -6 -15 -17 -27 -24 -27 -7 0 -26
-13 -42 -30 l-28 -29 27 -36 c15 -19 31 -35 37 -35 13 0 11 11 -6 30 -13 15
-12 19 10 38 23 21 24 21 30 1 4 -10 11 -19 16 -19 16 0 10 23 -13 47 -12 13
-18 26 -14 30 4 5 13 1 19 -7 31 -40 45 -43 72 -17 24 22 25 27 14 46 -8 11
-17 21 -21 21 -5 0 -8 7 -8 15 0 16 -27 20 -47 7z"/>
<path d="M2094 1145 c0 -66 1 -92 3 -57 2 34 2 88 0 120 -2 31 -3 3 -3 -63z"/>
<path d="M293 1185 c0 -22 2 -30 4 -17 2 12 2 30 0 40 -3 9 -5 -1 -4 -23z"/>
<path d="M3225 1179 c-4 -6 1 -16 11 -24 10 -7 19 -23 19 -36 2 -33 19 -36 23
-4 2 14 9 25 15 24 24 -3 37 1 37 11 0 6 -10 10 -23 10 -13 0 -32 7 -43 15
-23 17 -31 18 -39 4z"/>
<path d="M2988 1143 c5 -21 7 -23 10 -9 2 10 0 22 -6 28 -6 6 -7 0 -4 -19z"/>
<path d="M3157 1112 c-30 -31 -36 -62 -12 -62 8 0 15 -4 15 -8 0 -5 6 -17 14
-27 13 -18 15 -17 45 15 17 19 31 37 31 40 0 6 -57 70 -63 70 -2 0 -15 -13
-30 -28z"/>
<path d="M2652 1053 c-1 -21 -11 -38 -27 -51 -19 -15 -29 -38 -40 -89 -26
-120 -21 -166 29 -271 47 -99 63 -124 52 -81 -4 19 3 45 21 85 22 46 28 54 31
37 5 -35 -35 -166 -55 -177 -19 -11 -181 -76 -190 -76 -3 0 -2 20 1 44 l7 43
-68 6 c-37 4 -90 6 -118 6 -27 -1 -1 -6 59 -11 61 -5 111 -10 113 -12 2 -1 0
-17 -3 -35 -6 -28 -10 -31 -33 -27 -14 3 -84 7 -156 10 -151 5 -142 2 45 -15
l135 -13 -60 -18 c-33 -11 -76 -17 -95 -15 -33 3 -160 -28 -160 -40 0 -3 8 -2
18 2 9 4 53 11 97 16 44 5 107 17 140 25 103 26 280 94 291 112 6 9 21 60 34
112 15 59 31 100 42 108 10 7 18 19 18 25 0 8 -3 8 -8 2 -4 -6 -22 -21 -40
-34 -18 -12 -43 -43 -56 -69 l-23 -45 -26 44 c-33 56 -50 132 -42 189 11 88
27 140 45 150 15 8 18 3 22 -53 6 -65 38 -144 64 -154 8 -3 23 5 35 21 28 35
39 33 34 -6 -4 -27 -3 -26 7 7 6 22 16 43 22 47 7 5 7 8 1 8 -6 0 -21 -7 -34
-17 -23 -16 -25 -15 -43 6 -10 13 -18 20 -18 15 0 -4 7 -16 16 -26 14 -14 14
-20 4 -33 -33 -39 -71 48 -80 180 -4 55 -7 86 -8 68z"/>
<path d="M3077 1032 c-10 -10 -17 -23 -17 -29 0 -6 -11 -18 -25 -27 -43 -28
-28 -86 22 -86 15 0 27 9 35 25 6 14 16 24 21 22 11 -3 57 39 57 53 0 5 -9 14
-20 20 -11 6 -20 17 -20 25 0 21 -34 19 -53 -3z m19 -66 c8 -20 -31 -60 -50
-53 -21 8 -20 37 2 53 23 18 41 17 48 0z"/>
<path d="M811 1000 c0 -33 1 -34 11 -12 8 17 8 26 0 34 -9 9 -12 4 -11 -22z"/>
<path d="M2813 984 l-28 -25 33 22 c17 13 32 24 32 26 0 8 -11 1 -37 -23z"/>
<path d="M323 915 c0 -27 2 -38 4 -22 2 15 2 37 0 50 -2 12 -4 0 -4 -28z"/>
<path d="M2073 941 c-8 -13 -9 -22 -3 -26 11 -7 13 -209 4 -304 l-7 -61 -36
-2 c-49 -2 90 -16 159 -15 47 0 43 1 -23 7 -43 4 -80 9 -81 11 -2 2 -1 56 1
120 l6 117 36 6 c20 3 61 6 91 5 l55 0 -59 -54 c-79 -74 -61 -70 25 4 38 33
98 81 134 106 36 26 65 49 65 51 0 7 -16 -3 -85 -51 -60 -42 -61 -43 -162 -47
l-102 -4 -3 78 c-3 67 -5 76 -15 59z"/>
<path d="M2475 930 c-3 -6 1 -7 9 -4 18 7 21 14 7 14 -6 0 -13 -4 -16 -10z"/>
<path d="M2885 889 c-16 -10 -25 -19 -19 -19 7 0 22 9 35 20 30 24 23 24 -16
-1z"/>
<path d="M2612 785 c0 -16 2 -22 5 -12 2 9 2 23 0 30 -3 6 -5 -1 -5 -18z"/>
<path d="M2620 745 c0 -5 5 -17 10 -25 5 -8 10 -10 10 -5 0 6 -5 17 -10 25 -5
8 -10 11 -10 5z"/>
<path d="M484 632 c-51 -18 -167 -83 -160 -89 2 -2 41 15 87 38 46 24 107 48
134 55 39 10 43 12 20 13 -16 0 -53 -8 -81 -17z"/>
<path d="M1263 593 c15 -2 39 -2 55 0 15 2 2 4 -28 4 -30 0 -43 -2 -27 -4z"/>
<path d="M1438 583 c17 -2 47 -2 65 0 17 2 3 4 -33 4 -36 0 -50 -2 -32 -4z"/>
<path d="M1568 573 c17 -2 47 -2 65 0 17 2 3 4 -33 4 -36 0 -50 -2 -32 -4z"/>
<path d="M1698 563 c17 -2 47 -2 65 0 17 2 3 4 -33 4 -36 0 -50 -2 -32 -4z"/>
<path d="M1838 553 c18 -2 45 -2 60 0 15 2 0 4 -33 4 -33 0 -45 -2 -27 -4z"/>
<path d="M1530 495 c96 -8 229 -16 295 -19 66 -3 17 4 -110 14 -126 10 -259
18 -295 18 -36 0 14 -6 110 -13z"/>
<path d="M1453 463 c9 -2 23 -2 30 0 6 3 -1 5 -18 5 -16 0 -22 -2 -12 -5z"/>
<path d="M1550 461 c54 -7 55 -24 3 -31 -32 -5 -27 -7 37 -13 170 -18 244 -45
128 -49 l-63 -2 55 -3 c38 -3 50 -7 40 -13 -13 -8 -12 -10 2 -10 10 0 26 -16
37 -37 11 -21 20 -34 21 -30 0 5 -5 17 -10 28 -10 18 -6 19 102 21 l113 2
-114 5 c-113 6 -138 15 -108 39 8 7 99 18 208 27 107 8 212 17 233 20 26 4 42
1 47 -6 5 -9 11 -10 21 -2 7 6 22 13 33 16 42 10 -37 7 -284 -13 -227 -18
-256 -18 -308 -5 -31 8 -72 15 -90 15 -23 0 -36 6 -40 18 -10 25 -24 32 -68
30 l-40 -1 45 -6z"/>
<path d="M2028 463 c23 -2 59 -2 80 0 20 2 1 4 -43 4 -44 0 -61 -2 -37 -4z"/>
<path d="M1820 431 c0 -9 150 -24 158 -16 3 3 3 7 1 9 -9 7 -159 14 -159 7z"/>
<path d="M2088 343 c7 -3 16 -2 19 1 4 3 -2 6 -13 5 -11 0 -14 -3 -6 -6z"/>
<path d="M2038 333 c6 -2 18 -2 25 0 6 3 1 5 -13 5 -14 0 -19 -2 -12 -5z"/>
<path d="M1650 320 c-20 -6 -21 -8 -5 -8 11 0 29 3 40 8 25 11 -1 11 -35 0z"/>
<path d="M1500 300 c-36 -4 -58 -7 -49 -8 13 -2 18 -19 23 -80 3 -43 4 -107 1
-142 -4 -60 -4 -62 6 -25 6 22 9 86 7 143 l-4 102 41 1 c22 1 54 5 70 9 l30 8
-30 -1 c-16 0 -59 -3 -95 -7z"/>
<path d="M952 223 c5 -25 28 -28 28 -4 0 12 -6 21 -16 21 -9 0 -14 -7 -12 -17z"/>
<path d="M1807 213 c-9 -9 -9 -65 1 -78 4 -6 19 -16 34 -22 20 -9 28 -21 33
-55 5 -24 10 -37 12 -30 3 7 -2 35 -11 62 -9 27 -16 62 -16 79 0 34 -35 63
-53 44z"/>
<path d="M1024 199 c-3 -6 0 -17 7 -25 18 -17 44 -2 36 20 -7 18 -33 21 -43 5z"/>
<path d="M1376 185 c-25 -26 -20 -63 10 -77 23 -11 28 -10 40 7 19 26 14 54
-12 72 -19 12 -24 12 -38 -2z"/>
</g>
</svg>
